<?xml version="1.0" standalone="no"?>
<!DOCTYPE svg PUBLIC "-//W3C//DTD SVG 20010904//EN"
 "http://www.w3.org/TR/2001/REC-SVG-20010904/DTD/svg10.dtd">
<svg version="1.0" xmlns="http://www.w3.org/2000/svg"
 width="250.000000pt" height="250.000000pt" viewBox="0 0 250.000000 250.000000"
 preserveAspectRatio="xMidYMid meet">
<metadata>
Created by potrace 1.16, written by Peter Selinger 2001-2019
</metadata>
<g transform="translate(0.000000,250.000000) scale(0.100000,-0.100000)"
fill="#000000" stroke="none">
<path d="M0 1250 l0 -1250 1250 0 1250 0 0 1250 0 1250 -1250 0 -1250 0 0
-1250z m1348 1228 c-8 -6 6 -8 40 -4 37 4 51 2 46 -6 -5 -7 4 -9 31 -4 27 5
35 4 30 -4 -6 -9 2 -10 26 -5 26 5 31 4 19 -5 -12 -9 -7 -10 20 -5 27 5 32 4
20 -5 -12 -9 -9 -10 13 -5 20 4 27 2 22 -6 -5 -8 -1 -9 15 -4 16 5 20 4 15 -5
-5 -9 -1 -10 15 -5 15 5 20 4 16 -4 -4 -6 -5 -11 -2 -11 2 0 13 -3 23 -6 15
-5 15 -4 3 5 -8 6 -10 11 -5 11 14 0 43 -20 30 -20 -12 -1 36 -29 50 -29 6 -1
3 4 -5 9 -8 5 -11 10 -7 10 11 0 67 -30 67 -36 0 -3 -4 -2 -10 1 -5 3 -10 4
-10 1 0 -3 14 -13 31 -22 18 -9 28 -11 24 -4 -6 9 -2 9 14 1 22 -12 30 -27 9
-16 -7 4 -4 -1 7 -9 11 -9 25 -14 31 -12 7 3 18 -3 26 -12 12 -15 11 -16 -4
-3 -10 7 -18 11 -18 8 0 -3 15 -16 33 -28 27 -19 30 -20 17 -4 -13 16 -10 16
17 -3 18 -13 36 -28 39 -35 4 -7 -3 -3 -17 8 l-24 20 24 -28 c23 -26 49 -38
36 -17 -14 22 4 7 75 -66 41 -42 69 -74 63 -70 -23 13 -13 -10 14 -35 l28 -24
-20 25 -20 25 22 -18 c12 -11 20 -24 17 -30 -2 -7 8 -25 22 -42 l26 -30 -22
35 -22 35 25 -29 c14 -16 23 -34 21 -40 -2 -7 3 -20 12 -31 8 -11 12 -14 8 -6
-4 9 -3 12 4 7 6 -4 8 -14 5 -23 -4 -11 -3 -14 5 -9 7 4 10 2 7 -6 -3 -8 2
-22 11 -33 8 -11 13 -14 9 -7 -3 6 -4 12 -1 12 6 0 36 -56 36 -67 0 -4 -5 -1
-10 7 -5 8 -10 11 -9 5 0 -14 28 -62 29 -50 0 13 20 -16 20 -30 0 -5 -5 -3
-10 5 -11 17 -13 10 -4 -14 3 -9 11 -13 16 -10 6 4 7 -2 3 -16 -5 -16 -4 -20
5 -15 9 5 10 1 5 -15 -5 -16 -4 -20 4 -15 8 5 10 -2 6 -22 -5 -22 -4 -25 5
-13 9 12 10 7 5 -20 -5 -27 -4 -32 5 -20 9 12 10 7 5 -19 -5 -24 -4 -32 5 -26
8 5 9 -3 4 -30 -5 -27 -4 -36 4 -31 9 5 10 -6 5 -40 -4 -32 -3 -45 4 -41 8 5
11 -28 11 -103 0 -75 -3 -108 -11 -103 -7 4 -8 -9 -4 -41 5 -34 4 -45 -5 -40
-8 5 -9 -4 -4 -31 5 -27 4 -35 -4 -30 -9 6 -10 -2 -5 -26 5 -26 4 -31 -5 -19
-9 12 -10 7 -5 -20 5 -27 4 -32 -5 -20 -9 12 -10 9 -5 -13 4 -20 2 -27 -6 -22
-8 5 -9 1 -4 -15 5 -16 4 -20 -5 -15 -9 5 -10 1 -5 -15 5 -15 4 -20 -4 -16 -6
4 -11 5 -11 2 0 -2 -3 -13 -6 -23 -5 -15 -4 -15 5 -3 6 8 11 11 11 5 0 -14
-20 -43 -20 -30 -1 12 -29 -36 -29 -50 -1 -5 4 -3 9 5 5 8 10 11 10 7 0 -11
-30 -67 -36 -67 -3 0 -2 6 1 13 4 6 -1 3 -9 -8 -9 -11 -14 -25 -11 -33 3 -8 0
-10 -7 -6 -8 5 -9 2 -5 -9 3 -9 1 -19 -5 -23 -7 -5 -8 -2 -4 7 4 8 0 5 -8 -6
-9 -11 -14 -25 -12 -31 3 -7 -3 -18 -12 -26 -15 -11 -16 -11 -7 2 6 9 0 4 -13
-10 -12 -14 -20 -30 -18 -37 3 -6 -5 -19 -17 -30 l-22 -18 20 25 20 25 -28
-24 c-26 -23 -38 -49 -17 -36 22 14 7 -4 -66 -75 -42 -41 -74 -69 -70 -62 13
22 -10 12 -35 -15 l-24 -28 24 20 c14 11 21 15 17 8 -3 -7 -21 -22 -39 -35
-27 -19 -30 -19 -17 -3 13 16 10 15 -17 -4 -18 -12 -33 -25 -33 -28 0 -3 8 1
18 8 15 13 16 12 4 -3 -8 -9 -19 -15 -26 -12 -6 2 -20 -3 -31 -12 -11 -8 -14
-13 -7 -9 21 11 13 -4 -9 -16 -16 -8 -20 -8 -14 1 4 7 -6 5 -24 -4 -17 -9 -31
-19 -31 -22 0 -3 5 -2 10 1 6 3 10 4 10 1 0 -6 -56 -36 -67 -36 -4 0 -1 5 7
10 8 5 11 10 5 9 -14 0 -62 -28 -50 -29 13 0 -16 -20 -30 -20 -5 0 -3 5 5 10
17 11 10 13 -14 4 -9 -3 -13 -11 -10 -16 4 -6 -2 -7 -16 -3 -16 5 -20 4 -15
-5 5 -9 1 -10 -15 -5 -16 5 -20 4 -15 -4 5 -8 -2 -10 -22 -6 -22 5 -25 4 -13
-5 12 -9 7 -10 -20 -5 -27 5 -32 4 -20 -5 12 -9 7 -10 -19 -5 -24 5 -32 4 -26
-5 5 -8 -3 -9 -30 -4 -26 5 -36 3 -31 -4 4 -7 -12 -9 -51 -6 -39 3 -51 1 -38
-5 13 -5 -19 -9 -95 -9 -76 0 -108 4 -95 9 13 6 1 8 -38 5 -39 -3 -55 -1 -51
6 5 7 -5 9 -31 4 -27 -5 -35 -4 -30 4 6 9 -2 10 -26 5 -26 -5 -31 -4 -19 5 12
9 7 10 -20 5 -27 -5 -32 -4 -20 5 12 9 9 10 -13 5 -20 -4 -27 -2 -22 6 5 8 1
9 -15 4 -16 -5 -20 -4 -15 5 5 9 1 10 -15 5 -15 -5 -20 -4 -16 4 4 6 5 11 2
11 -2 0 -13 3 -23 6 -15 5 -15 4 -3 -5 8 -6 11 -11 5 -11 -14 0 -43 20 -30 20
12 1 -36 29 -50 29 -5 1 -3 -4 5 -9 8 -5 11 -10 7 -10 -11 0 -67 30 -67 36 0
3 5 2 10 -1 6 -3 10 -4 10 -1 0 3 -14 13 -31 22 -18 9 -28 11 -24 4 6 -9 2 -9
-14 -1 -22 12 -30 27 -8 16 6 -4 3 1 -8 9 -11 9 -25 14 -31 12 -7 -3 -18 3
-26 12 -12 15 -11 16 5 3 9 -7 17 -11 17 -8 0 3 -15 16 -33 28 -27 19 -30 20
-17 4 13 -16 10 -16 -17 3 -18 13 -36 28 -39 35 -4 7 3 3 17 -8 l24 -20 -24
28 c-25 27 -48 37 -35 15 4 -7 -28 21 -70 62 -73 71 -88 89 -66 75 21 -13 9
13 -17 36 l-28 24 20 -25 20 -25 -22 18 c-12 11 -20 24 -17 30 2 7 -6 23 -18
37 -13 14 -18 19 -13 10 9 -13 8 -13 -7 -2 -9 8 -15 19 -12 26 2 6 -3 20 -12
31 -8 11 -12 14 -8 6 4 -9 3 -12 -4 -7 -6 4 -8 14 -5 23 4 11 3 14 -5 9 -7 -4
-10 -2 -7 6 3 8 -2 22 -11 33 -8 11 -13 14 -9 7 3 -6 4 -12 1 -12 -6 0 -36 56
-36 67 0 4 5 1 10 -7 5 -8 10 -10 9 -5 0 14 -28 62 -29 50 0 -13 -20 16 -20
30 0 6 5 3 10 -5 11 -17 13 -10 4 14 -3 9 -11 13 -16 10 -6 -4 -7 2 -3 16 5
16 4 20 -5 15 -9 -5 -10 -1 -5 15 5 16 4 20 -4 15 -8 -5 -10 2 -6 22 5 22 4
25 -5 13 -9 -12 -10 -7 -5 20 5 27 4 32 -5 20 -9 -12 -10 -7 -5 19 5 24 4 32
-5 26 -8 -5 -9 3 -4 30 5 27 4 36 -4 31 -9 -5 -10 6 -5 40 4 32 3 45 -4 41 -8
-5 -11 28 -11 103 0 75 3 108 11 103 7 -4 8 9 4 41 -5 34 -4 45 5 40 8 -5 9 4
4 31 -5 27 -4 35 4 30 9 -6 10 2 5 26 -5 26 -4 31 5 19 9 -12 10 -7 5 20 -5
27 -4 32 5 20 9 -12 10 -9 5 13 -4 20 -2 27 6 22 8 -5 9 -1 4 15 -5 16 -4 20
5 15 9 -5 10 -1 5 15 -5 15 -4 20 4 16 6 -4 11 -5 11 -2 0 2 3 13 6 23 5 15 4
15 -5 3 -6 -8 -11 -10 -11 -5 0 14 20 43 20 30 1 -12 29 36 29 50 1 6 -4 3 -9
-5 -5 -8 -10 -11 -10 -7 0 11 30 67 36 67 3 0 2 -6 -1 -12 -4 -7 1 -4 9 7 9
11 14 25 11 33 -3 8 0 10 7 6 8 -5 9 -2 5 9 -3 9 -1 19 5 23 7 5 8 2 4 -7 -4
-8 0 -5 8 6 9 11 14 24 12 31 -2 6 7 24 21 40 l25 29 -22 -35 -22 -35 26 30
c14 17 24 35 22 42 -3 6 5 19 17 30 l22 18 -20 -25 -20 -25 28 24 c26 23 38
49 17 36 -22 -14 -7 4 66 75 42 41 74 69 70 63 -13 -23 10 -13 35 14 l24 28
-24 -20 c-14 -11 -21 -15 -17 -8 3 7 21 22 39 35 27 19 30 19 17 3 -13 -16
-10 -15 18 4 17 12 32 25 32 28 0 3 -8 -1 -17 -8 -16 -13 -17 -12 -5 3 8 9 19
15 26 12 6 -2 20 3 31 12 11 8 14 13 8 9 -22 -11 -14 4 8 16 16 8 20 8 14 -1
-4 -7 6 -5 24 4 17 9 31 19 31 22 0 3 -4 2 -10 -1 -5 -3 -10 -4 -10 -1 0 6 56
36 67 36 4 0 1 -5 -7 -10 -8 -5 -10 -10 -5 -9 14 0 62 28 50 29 -13 0 16 20
30 20 6 0 3 -5 -5 -10 -17 -11 -10 -13 14 -4 9 3 13 11 10 16 -4 6 2 7 16 3
16 -5 20 -4 15 5 -5 9 -1 10 15 5 16 -5 20 -4 15 4 -5 8 2 10 22 6 22 -5 25
-4 13 5 -12 9 -7 10 20 5 27 -5 32 -4 20 5 -12 9 -7 10 19 5 24 -5 32 -4 26 5
-5 8 3 9 30 4 27 -5 36 -3 31 4 -5 8 9 10 46 6 34 -4 48 -2 40 4 -8 6 27 9 98
9 71 0 106 -3 98 -9z"/>
<path d="M1198 2313 c-32 -35 -54 -78 -84 -167 -29 -83 -70 -292 -79 -396 -9
-107 -6 -104 -72 -74 -187 84 -398 149 -517 159 -57 5 -78 3 -106 -12 -73 -38
-46 -126 77 -254 50 -52 63 -72 63 -97 0 -37 39 -72 82 -72 21 0 59 -22 128
-72 54 -40 99 -75 99 -78 0 -3 -43 -36 -97 -75 -123 -90 -304 -263 -354 -340
-32 -48 -38 -67 -36 -100 3 -34 8 -43 38 -58 28 -15 49 -17 106 -12 119 10
330 75 517 159 42 19 59 23 61 14 2 -7 9 -64 16 -126 10 -101 10 -115 -4 -131
-26 -29 -20 -70 17 -105 22 -22 39 -54 56 -106 112 -356 262 -252 345 240 9
52 19 128 22 168 5 47 11 71 18 68 6 -2 59 -25 118 -49 357 -151 598 -175 598
-60 0 77 -174 272 -380 427 -58 44 -105 82 -105 86 0 4 47 42 105 86 200 150
380 350 380 422 0 84 -98 101 -293 51 -72 -18 -81 -19 -96 -5 -38 35 -112 6
-123 -47 -2 -12 -37 -32 -108 -62 -58 -25 -105 -45 -106 -45 -1 0 -4 33 -8 73
-15 172 -65 400 -109 499 -52 116 -114 150 -169 91z m78 -40 c58 -59 109 -260
149 -598 l6 -50 -88 -47 -88 -46 -89 45 -88 44 7 67 c22 225 70 443 116 535
37 73 46 79 75 50z m-711 -512 c89 -22 257 -83 378 -138 l79 -37 -6 -44 c-3
-25 -6 -68 -6 -97 l0 -52 -78 -52 c-43 -28 -83 -51 -89 -51 -7 0 -56 33 -111
74 -96 72 -100 76 -99 112 1 52 -41 89 -94 80 -36 -6 -40 -3 -89 52 -63 69
-104 137 -96 157 8 22 112 19 211 -4z m1590 9 c9 -14 -27 -78 -78 -140 -81
-99 -386 -344 -417 -337 -8 2 -47 25 -87 50 l-71 47 -7 96 c-4 52 -4 99 1 104
5 4 56 28 114 53 93 39 107 43 125 31 11 -8 29 -14 41 -14 26 0 74 36 74 55 0
19 15 27 95 46 77 19 200 25 210 9z m-752 -387 l37 -23 0 -110 0 -110 -37 -23
c-21 -13 -63 -37 -93 -55 l-56 -31 -97 55 -97 55 0 109 0 109 97 55 97 55 56
-31 c30 -18 72 -42 93 -55z m-471 -224 l78 -52 0 -52 c0 -29 3 -72 6 -97 l6
-44 -79 -37 c-121 -55 -289 -116 -378 -138 -97 -23 -203 -26 -211 -5 -13 34
84 159 204 262 99 85 270 214 285 214 6 0 46 -23 89 -51z m834 -17 c130 -96
258 -208 311 -272 51 -62 87 -126 78 -140 -10 -17 -125 -11 -212 10 -85 20
-271 88 -387 140 -74 34 -72 28 -59 163 l6 68 76 49 c42 27 81 50 86 50 6 0
51 -31 101 -68z m-341 -317 c-34 -284 -67 -440 -116 -541 -28 -59 -50 -81 -70
-68 -16 10 -56 97 -79 172 l-22 72 21 26 c12 15 21 37 21 49 0 27 -36 75 -55
75 -8 0 -16 14 -20 33 -7 46 -25 198 -25 219 0 12 27 32 88 62 l87 44 88 -46
88 -47 -6 -50z"/>
<path d="M1183 1360 c-115 -70 -61 -240 76 -240 50 0 106 45 120 96 22 78 -42
164 -122 164 -24 0 -56 -8 -74 -20z"/>
</g>
</svg>
