<?xml version="1.0" standalone="no"?>
<!DOCTYPE svg PUBLIC "-//W3C//DTD SVG 20010904//EN"
 "http://www.w3.org/TR/2001/REC-SVG-20010904/DTD/svg10.dtd">
<svg version="1.0" xmlns="http://www.w3.org/2000/svg"
 width="200.000000pt" height="200.000000pt" viewBox="0 0 200.000000 200.000000"
 preserveAspectRatio="xMidYMid meet">
<metadata>
Created by potrace 1.16, written by Peter Selinger 2001-2019
</metadata>
<g transform="translate(0.000000,200.000000) scale(0.100000,-0.100000)"
fill="#000000" stroke="none">
<path d="M942 1865 c-35 -29 -63 -90 -91 -200 -24 -89 -51 -249 -51 -296 0
-21 -4 -29 -12 -26 -302 123 -465 161 -542 125 -60 -27 -37 -116 55 -213 27
-29 49 -61 49 -72 0 -34 38 -72 78 -79 36 -7 165 -91 160 -105 -2 -4 -48 -43
-103 -87 -171 -136 -274 -259 -275 -329 0 -31 35 -60 77 -65 84 -10 235 27
417 101 l94 38 7 -82 c4 -54 3 -90 -4 -103 -19 -36 -13 -72 17 -102 16 -16 35
-50 42 -77 28 -103 84 -183 128 -183 36 0 59 17 86 63 46 78 76 199 112 455 5
31 5 32 32 18 15 -8 69 -30 121 -50 196 -76 349 -99 405 -62 25 16 28 22 24
61 -3 25 -18 61 -36 86 -38 55 -154 167 -252 244 -41 32 -79 61 -83 65 -5 4
31 38 80 76 128 100 211 181 255 248 37 57 48 106 30 132 -24 36 -110 44 -222
19 -49 -11 -72 -11 -96 -3 -43 15 -81 3 -104 -34 -13 -22 -38 -39 -84 -59
l-65 -28 -5 32 c-45 298 -80 419 -136 478 -43 45 -67 48 -108 14z m83 -107
c37 -81 66 -214 90 -403 l6 -50 -66 -33 -65 -32 -62 31 -61 31 7 76 c14 171
86 432 118 432 5 0 20 -24 33 -52z m-487 -397 c65 -21 148 -53 185 -69 66 -30
67 -31 67 -70 0 -80 -10 -101 -64 -138 -28 -19 -57 -34 -64 -34 -7 0 -44 23
-83 52 -57 43 -69 56 -69 80 0 40 -40 78 -83 78 -24 0 -41 8 -63 33 -47 49
-74 88 -74 105 0 25 115 8 248 -37z m1154 27 c-12 -49 -330 -338 -371 -338 -5
0 -34 15 -65 33 l-56 32 0 75 0 75 78 32 c54 22 87 30 109 26 47 -8 82 4 95
32 14 31 75 49 180 54 33 1 36 -1 30 -21z m-564 -385 l3 -80 -38 -25 c-21 -14
-53 -33 -71 -42 l-34 -17 -69 41 -69 41 0 59 c0 85 10 103 81 143 l61 35 67
-38 66 -38 3 -79z m-410 -84 c60 -34 72 -57 72 -132 l0 -52 -77 -34 c-128 -56
-274 -101 -350 -108 -40 -3 -73 -3 -73 1 0 28 67 107 165 195 61 55 196 161
205 161 3 0 29 -14 58 -31z m693 -31 c111 -82 246 -213 271 -262 l20 -39 -74
5 c-77 5 -227 51 -360 110 l-73 33 5 72 5 73 55 35 c30 19 58 35 61 35 4 0 44
-28 90 -62z m-291 -206 c0 -33 -43 -282 -58 -337 -22 -82 -52 -147 -70 -153
-7 -2 -22 18 -36 50 -35 79 -39 109 -21 146 20 39 13 68 -25 103 -24 22 -29
37 -35 102 -4 42 -5 83 -2 91 4 9 32 28 63 44 l56 28 64 -33 c35 -19 64 -37
64 -41z"/>
<path d="M934 1111 c-37 -16 -64 -65 -64 -116 0 -40 5 -52 34 -81 29 -29 41
-34 83 -34 55 0 86 17 108 60 40 78 -9 168 -95 176 -25 2 -55 0 -66 -5z"/>
</g>
</svg>
