<?xml version="1.0" standalone="no"?>
<!DOCTYPE svg PUBLIC "-//W3C//DTD SVG 20010904//EN"
 "http://www.w3.org/TR/2001/REC-SVG-20010904/DTD/svg10.dtd">
<svg version="1.0" xmlns="http://www.w3.org/2000/svg"
 width="200.000000pt" height="200.000000pt" viewBox="0 0 200.000000 200.000000"
 preserveAspectRatio="xMidYMid meet">
<metadata>
Created by potrace 1.16, written by Peter Selinger 2001-2019
</metadata>
<g transform="translate(0.000000,200.000000) scale(0.100000,-0.100000)"
fill="#000000" stroke="none">
<path d="M260 990 l0 -860 115 0 c63 0 115 3 115 8 0 4 -21 6 -47 5 l-48 -1
45 6 45 7 2 848 2 847 -114 0 -115 0 0 -860z m31 -837 c9 -10 8 -13 -5 -13
-14 0 -15 76 -13 848 l2 847 2 -834 c2 -596 6 -838 14 -848z"/>
<path d="M1491 1815 c-13 -19 -32 -45 -43 -57 -11 -13 -34 -43 -51 -68 -17
-25 -33 -47 -37 -50 -3 -3 -19 -23 -36 -45 -16 -22 -35 -46 -41 -53 -7 -7 -13
-16 -13 -20 0 -4 -15 -23 -33 -43 -31 -34 -72 -87 -155 -199 -36 -50 -119
-156 -195 -253 l-29 -36 33 -46 c18 -25 39 -43 45 -41 7 3 11 0 8 -7 -2 -7 17
-41 43 -76 27 -35 55 -73 63 -85 8 -12 27 -34 42 -51 16 -16 28 -36 28 -42 0
-7 4 -13 8 -13 5 0 21 -18 38 -41 16 -22 34 -46 39 -52 6 -7 43 -55 82 -107
40 -52 78 -102 86 -110 8 -8 44 -54 81 -103 l67 -87 147 2 c118 1 133 3 77 8
l-70 6 63 2 62 2 -65 83 c-37 45 -94 118 -127 162 -34 44 -75 96 -92 116 -32
36 -54 65 -121 154 -84 111 -161 211 -170 221 -5 6 -21 25 -35 43 -21 29 -25
30 -31 14 -4 -11 -6 -3 -5 20 1 29 13 53 47 95 25 31 103 134 174 227 71 94
132 172 135 175 11 8 34 54 32 63 -1 4 2 6 7 5 5 -2 35 31 65 72 31 41 60 77
64 80 5 3 24 28 43 55 18 28 36 52 39 55 3 3 16 18 29 33 l24 27 -149 0 -149
0 -24 -35z"/>
</g>
</svg>
